<svg data-name="Layer 1" xmlns="http://www.w3.org/2000/svg" viewBox="0 0 32 32"><defs><linearGradient id="a" x1="16" y1="30.73" x2="16" y2="1.27" gradientUnits="userSpaceOnUse"><stop offset="0" stop-color="#093c61"/><stop offset="1" stop-color="#3870c4"/></linearGradient></defs><path d="M29.69 8.35a3.55 3.55 0 0 0-6 3.05 3.54 3.54 0 0 1-4.05 4.11 3.54 3.54 0 0 0-4.1 4 3.54 3.54 0 0 1-3.73 4.15 3.55 3.55 0 0 1-1.05-5.55 3.54 3.54 0 0 0 .61-2.93 3.55 3.55 0 0 1 4.27-3.84 3.55 3.55 0 0 0 3.07-5.88l-.1-.11A3.54 3.54 0 0 0 13.75 5a3.54 3.54 0 0 1-5.6-1.42A3.55 3.55 0 1 0 7 7.61a3.55 3.55 0 0 1 5.53 1.21 3.54 3.54 0 0 1-4.1 3.68 3.55 3.55 0 0 0-3.21 5.9l.08.08.07.06.19.17a3.56 3.56 0 0 0 1 .56 3.54 3.54 0 0 1 1.53 5.57L8 25l-.12.16-.09.15-.08.14-.09.17-.07.14-.07.17-.05.16V28.11c0 .08 0 .16.08.23v.1l.09.21.05.11.1.18.08.13.1.14.11.15.1.12.13.15.09.08.13.12.15.12.11.08.19.12.1.06.21.11h.1l.21.08h.11l.2.06h1.52l.25-.05h.09l.26-.08h.08l.24-.1h.09l.2-.11.12-.07.15-.11.14-.1.12-.1.15-.13.08-.09.12-.14.12-.15.09-.12.11-.18.07-.11.1-.19.05-.11.08-.19v-.14l.05-.18v-.32-.19-.14-.2-.15-.19V26.53a3.55 3.55 0 0 1 4.24-4.05 3.54 3.54 0 0 0 3.93-4 3.55 3.55 0 0 1 4.23-4.12 3.55 3.55 0 0 0 2.93-6z" fill="url(#a)"/></svg>