<svg id="Layer_1" data-name="Layer 1" xmlns="http://www.w3.org/2000/svg" viewBox="0 0 149.81 32.9"><defs><style>.cls-1{fill:#1f2024}</style><linearGradient id="linear-gradient" x1="-187.93" y1="-4894.57" x2="-164.66" y2="-4917.83" gradientTransform="rotate(-45 5862.246 -2677.542)" gradientUnits="userSpaceOnUse"><stop offset="0" stop-color="#093c61"/><stop offset="1" stop-color="#3870c4"/></linearGradient></defs><path class="cls-1" d="M56 15.23a8.89 8.89 0 0 1-.61 3.34 7.59 7.59 0 0 1-1.72 2.62 7.88 7.88 0 0 1-2.68 1.71 9.39 9.39 0 0 1-3.47.62H41.1V7h6.37a9.39 9.39 0 0 1 3.47.62 7.84 7.84 0 0 1 2.68 1.72 7.66 7.66 0 0 1 1.72 2.62 8.82 8.82 0 0 1 .66 3.27zm-3.51 0a7.46 7.46 0 0 0-.34-2.34 4.94 4.94 0 0 0-1-1.76A4.29 4.29 0 0 0 49.56 10a5.31 5.31 0 0 0-2.08-.39h-2.93v11.2h2.92a5.38 5.38 0 0 0 2.08-.38 4.2 4.2 0 0 0 1.56-1.11 5 5 0 0 0 1-1.76 7.5 7.5 0 0 0 .33-2.33zM60.9 8.4a1.73 1.73 0 0 1-.16.74 2.06 2.06 0 0 1-.43.6 2 2 0 0 1-.63.41 2 2 0 0 1-.77.15 1.86 1.86 0 0 1-.74-.15 1.91 1.91 0 0 1-.61-.41 2 2 0 0 1-.42-.6A1.79 1.79 0 0 1 57 8.4a1.83 1.83 0 0 1 .15-.75 2 2 0 0 1 .42-.65 1.92 1.92 0 0 1 .61-.41 1.86 1.86 0 0 1 .74-.15 2 2 0 0 1 .77.15 2 2 0 0 1 .63.41 2 2 0 0 1 .43.61 1.77 1.77 0 0 1 .15.79zm-.38 3.34v11.77h-3.14V11.75zM70 14.17a.93.93 0 0 1-.26.28.65.65 0 0 1-.36.09 1.08 1.08 0 0 1-.47-.11l-.54-.25a5.81 5.81 0 0 0-.68-.25 3.1 3.1 0 0 0-.88-.11 2 2 0 0 0-1.19.31 1 1 0 0 0-.42.83.81.81 0 0 0 .24.59A2.11 2.11 0 0 0 66 16a7.72 7.72 0 0 0 .9.33l1 .34a9.84 9.84 0 0 1 1 .42 3.66 3.66 0 0 1 .9.6 2.75 2.75 0 0 1 .63.87 2.86 2.86 0 0 1 .24 1.23 3.94 3.94 0 0 1-.31 1.58 3.46 3.46 0 0 1-.92 1.25 4.34 4.34 0 0 1-1.44.78 6.93 6.93 0 0 1-4.41-.12 7.11 7.11 0 0 1-1-.46 4.48 4.48 0 0 1-.81-.57l.73-1.18a.85.85 0 0 1 .8-.43 1 1 0 0 1 .52.14l.54.31a4.54 4.54 0 0 0 .7.31 3.07 3.07 0 0 0 1 .14 2.67 2.67 0 0 0 .79-.1 1.48 1.48 0 0 0 .54-.28 1.11 1.11 0 0 0 .3-.4 1.15 1.15 0 0 0 .1-.46.86.86 0 0 0-.25-.63 2.22 2.22 0 0 0-.64-.43 6.38 6.38 0 0 0-.91-.33l-1-.33a8.78 8.78 0 0 1-1-.43 3.53 3.53 0 0 1-.9-.63 2.94 2.94 0 0 1-.64-.94 3.37 3.37 0 0 1-.25-1.36 3.44 3.44 0 0 1 .29-1.39 3.27 3.27 0 0 1 .86-1.16 4.24 4.24 0 0 1 1.42-.8 6 6 0 0 1 2-.3A6.1 6.1 0 0 1 69 12a5 5 0 0 1 1.69 1zM75.15 13.29a7 7 0 0 1 .75-.71 4.87 4.87 0 0 1 .86-.56 4.59 4.59 0 0 1 1-.37 4.7 4.7 0 0 1 1.14-.13 3.77 3.77 0 0 1 1.74.41A3.9 3.9 0 0 1 82 13.1a5.84 5.84 0 0 1 .87 1.9 9.32 9.32 0 0 1 .32 2.56 8 8 0 0 1-.36 2.44 6 6 0 0 1-1 1.95 4.72 4.72 0 0 1-1.59 1.28 4.59 4.59 0 0 1-2.07.46 4.14 4.14 0 0 1-1.63-.29 4.08 4.08 0 0 1-1.19-.78v4.69h-3.17V11.75h1.94a.76.76 0 0 1 .79.55zm.18 7.12a2.51 2.51 0 0 0 1 .72 3 3 0 0 0 1.11.21 2.44 2.44 0 0 0 1-.22 2.07 2.07 0 0 0 .8-.68 3.42 3.42 0 0 0 .52-1.18 7 7 0 0 0 .24-1.72 7.71 7.71 0 0 0-.15-1.67 3.33 3.33 0 0 0-.43-1.11 1.67 1.67 0 0 0-.68-.61 2.06 2.06 0 0 0-.89-.19 2.76 2.76 0 0 0-1.4.33 3.85 3.85 0 0 0-1.07 1zM95 11.75v11.76h-2a.73.73 0 0 1-.78-.55l-.22-.82a8 8 0 0 1-.73.63 4.68 4.68 0 0 1-.8.49 4.4 4.4 0 0 1-.92.32 4.82 4.82 0 0 1-1.08.11 4.18 4.18 0 0 1-1.71-.33 3.43 3.43 0 0 1-1.25-.92 4.08 4.08 0 0 1-.72-1.44 5.9 5.9 0 0 1-.26-1.8v-7.45h3.15v7.47a2.32 2.32 0 0 0 .45 1.52 1.64 1.64 0 0 0 1.34.54 2.75 2.75 0 0 0 1.24-.28 4.54 4.54 0 0 0 1.11-.79v-8.46zM101.06 23.7a4 4 0 0 1-1.41-.23A2.74 2.74 0 0 1 98 21.74a4.18 4.18 0 0 1-.22-1.39V14h-1.13a.58.58 0 0 1-.6-.64v-1.23l1.88-.34.64-3a.64.64 0 0 1 .7-.51h1.64v3.58h3V14h-3v6.14a1.19 1.19 0 0 0 .23.78.81.81 0 0 0 .67.29 1.28 1.28 0 0 0 .39-.05 1.57 1.57 0 0 0 .27-.11l.21-.11a.42.42 0 0 1 .2-.05.39.39 0 0 1 .23.06.7.7 0 0 1 .18.21l.95 1.51a4.63 4.63 0 0 1-1.47.78 5.56 5.56 0 0 1-1.71.25zM107.46 18.11a3.72 3.72 0 0 0 .94 2.42 2.86 2.86 0 0 0 2.07.76 3.65 3.65 0 0 0 1.12-.15 5.4 5.4 0 0 0 .83-.34l.65-.34a1.22 1.22 0 0 1 .58-.15.67.67 0 0 1 .57.27l.91 1.14a5 5 0 0 1-1.11 1 5.94 5.94 0 0 1-1.26.6 6.72 6.72 0 0 1-1.31.31 10 10 0 0 1-1.28.09 6.43 6.43 0 0 1-2.3-.41 5.21 5.21 0 0 1-1.86-1.2 5.61 5.61 0 0 1-1.25-2 7.5 7.5 0 0 1-.46-2.73 6.44 6.44 0 0 1 .39-2.26 5.31 5.31 0 0 1 2.94-3.1 5.94 5.94 0 0 1 2.4-.46 5.86 5.86 0 0 1 2.08.36 4.62 4.62 0 0 1 1.64 1 4.71 4.71 0 0 1 1.07 1.68 6.34 6.34 0 0 1 .38 2.28 4 4 0 0 1 0 .58 1 1 0 0 1-.11.37.42.42 0 0 1-.22.19 1 1 0 0 1-.35.05zm5-1.87a3.3 3.3 0 0 0-.13-.94 2.18 2.18 0 0 0-.42-.79 2 2 0 0 0-.72-.54 2.47 2.47 0 0 0-1-.2 2.39 2.39 0 0 0-1.77.64 3.24 3.24 0 0 0-.83 1.83zM126.59 20.73v2.78h-9.83V7h3.42v13.73zM127.41 13.38a7 7 0 0 1 2.29-1.4 7.8 7.8 0 0 1 2.72-.46 4.87 4.87 0 0 1 1.88.34 4 4 0 0 1 1.4 1 4.18 4.18 0 0 1 .88 1.46 5.36 5.36 0 0 1 .31 1.85v7.4h-1.44a1.46 1.46 0 0 1-.68-.13.93.93 0 0 1-.38-.52l-.25-.75q-.45.39-.86.68a5 5 0 0 1-.86.5 4.5 4.5 0 0 1-1 .3 5.75 5.75 0 0 1-1.14.1 4.61 4.61 0 0 1-1.41-.21 3.07 3.07 0 0 1-1.1-.61 2.69 2.69 0 0 1-.71-1 3.61 3.61 0 0 1-.25-1.39 2.84 2.84 0 0 1 .33-1.3 3.2 3.2 0 0 1 1.18-1.24 7.2 7.2 0 0 1 2.15-.88 15 15 0 0 1 3.36-.39v-.6a2.38 2.38 0 0 0-.47-1.63A1.72 1.72 0 0 0 132 14a3.27 3.27 0 0 0-1.08.15 5.3 5.3 0 0 0-.76.33l-.61.33a1.37 1.37 0 0 1-.66.15.9.9 0 0 1-.55-.17 1.51 1.51 0 0 1-.37-.39zm6.41 5.22a14.72 14.72 0 0 0-1.92.2 4.64 4.64 0 0 0-1.22.37 1.59 1.59 0 0 0-.64.52 1.31 1.31 0 0 0 .19 1.6 1.75 1.75 0 0 0 1.07.29 3.09 3.09 0 0 0 1.36-.28 4.12 4.12 0 0 0 1.15-.87zM141.94 13.1a5.91 5.91 0 0 1 1.54-1.1 4.18 4.18 0 0 1 1.89-.42 4.06 4.06 0 0 1 1.83.41 4 4 0 0 1 1.39 1.16 5.54 5.54 0 0 1 .89 1.82 8.47 8.47 0 0 1 .31 2.39 8.81 8.81 0 0 1-.36 2.6 6 6 0 0 1-1 2 4.64 4.64 0 0 1-1.58 1.29 4.54 4.54 0 0 1-2 .46 4 4 0 0 1-1-.11 3.49 3.49 0 0 1-.8-.3 3.57 3.57 0 0 1-.67-.46 5.13 5.13 0 0 1-.58-.6l-.13.71a.77.77 0 0 1-.26.46.82.82 0 0 1-.49.13h-2.09V6.5h3.15zm0 7.3a2.51 2.51 0 0 0 1 .72 2.91 2.91 0 0 0 1.08.21 2.56 2.56 0 0 0 1.06-.21 2.05 2.05 0 0 0 .82-.67 3.36 3.36 0 0 0 .52-1.2 7.6 7.6 0 0 0 .18-1.79 7.34 7.34 0 0 0-.15-1.59 3.09 3.09 0 0 0-.44-1.08 1.75 1.75 0 0 0-.71-.62 2.33 2.33 0 0 0-1-.19 2.45 2.45 0 0 0-1.28.33 4.17 4.17 0 0 0-1.06 1z"/><path d="M26.13 7.91A4 4 0 0 0 25 11.32a4 4 0 0 1-4.53 4.59 4 4 0 0 0-4.58 4.51 4 4 0 0 1-4.17 4.63 4 4 0 0 1-1.18-6.2 4 4 0 0 0 .68-3.28A4 4 0 0 1 16 11.3a4 4 0 0 0 3.43-6.57v-.05l-.11-.12a4 4 0 0 0-5.29-.29 4 4 0 0 1-6.34-1.69 4 4 0 1 0-1.27 4.5 4 4 0 0 1 6.17 1.36A4 4 0 0 1 8 12.55a4 4 0 0 0-3.58 6.59l.09.09.08.07.21.19a4 4 0 0 0 1.08.63 4 4 0 0 1 1.71 6.22l-.09.11-.13.18-.1.16-.03.21-.1.18-.07.16-.07.21-.06.18-.05.18V29.62c0 .06 0 .16.05.24v.1c0 .09.05.17.08.26v.12l.1.24.06.12.11.2.09.15.11.16.12.17.11.13.15.17.1.09.15.14.17.14.13.09.21.13.11.07.23.12.11.05.24.09h.13l.23.07h1.69l.28-.06h.07l.29-.09h.09l.27-.12h.1l.22-.12.13-.08.17-.12.16-.11.13-.12.16-.15.09-.1.14-.15.13-.17.1-.13.13-.2.07-.12.11-.22.06-.13.09-.22.05-.15.06-.2v-.36-.21-.16-.22-.16-.22-.28a4 4 0 0 1 4.73-4.53 4 4 0 0 0 4.39-4.51 4 4 0 0 1 4.72-4.6 4 4 0 1 0-2.34-6.74z" fill="url(#linear-gradient)"/></svg>