<svg xmlns="http://www.w3.org/2000/svg" viewBox="0 0 255 255"><defs><linearGradient id="a" x1="7.93" y1="247.32" x2="247.58" y2="7.68" gradientUnits="userSpaceOnUse"><stop offset="0" stop-color="#dff9fb"/><stop offset="1" stop-color="#fff"/></linearGradient><clipPath id="b"><path d="M77.47 92.38l-50.28 29a7.7 7.7 0 0 0 3.89 6.74l150.85 87.1a7.72 7.72 0 0 0 7.79 0l26.94-15.56a23.34 23.34 0 0 0 11.67-20.21z" fill="#e2a569"/></clipPath><clipPath id="c"><path d="M186.48 133.39c0-12-8.44-26.64-18.84-32.65-5.21-3-9.92-3.28-13.33-1.32l-9.55 5.26 26.66 46.17 9.54-5.26c3.41-1.97 5.52-6.19 5.52-12.2z" fill="#a32e2e"/></clipPath><clipPath id="d"><path d="M199.48 184.76c0-12-8.44-26.63-18.84-32.64-5.21-3-9.92-3.29-13.33-1.32l-9.55 5.26 26.66 46.17L194 197c3.37-2 5.48-6.23 5.48-12.24z" fill="#a32e2e"/></clipPath><clipPath id="e"><path d="M122.86 96.64c0-12-8.44-26.64-18.85-32.65-5.2-3-9.91-3.28-13.33-1.32l-9.54 5.26 26.65 46.17 9.55-5.26c3.41-1.97 5.52-6.19 5.52-12.2z" fill="#a32e2e"/></clipPath></defs><rect x=".26" width="255" height="255" rx="26.13" ry="26.13" fill="url(#a)"/><path d="M77.47 92.38l-50.28 29a7.7 7.7 0 0 0 3.89 6.74l150.85 87.1a7.72 7.72 0 0 0 7.79 0l26.94-15.56a23.34 23.34 0 0 0 11.67-20.21z" fill="#e2a569"/><g clip-path="url(#b)" fill="#e2a569"><path d="M77.47 92.38l-50.28 29a7.7 7.7 0 0 0 3.89 6.74l150.85 87.1a7.72 7.72 0 0 0 7.79 0l26.94-15.56a23.34 23.34 0 0 0 11.67-20.21z"/><path d="M31.49 116.41l-9 4.25 5.25 11.75L185 217.53l3.5-1.25a9.27 9.27 0 0 1-7.87-2.38 8.91 8.91 0 0 1-2.5-6.06z"/></g><path d="M228.33 179.48L77.47 92.38c0-39.14 42.37-63.6 76.27-44a149.18 149.18 0 0 1 74.59 129.19z" fill="#f0932b"/><path d="M210 151.41c9.75-12.95 15.68-34 7.5-43-7.32-8.07-19.58.52-29-7.5-14-12-.28-43.78-9.5-48-6.77-3.1-15.41 13.4-26.5 11-13.17-2.86-14.1-29-24-29.5-8-.38-10 16.52-22.5 19-10.81 2.13-17.49-8.88-24.5-6-10 4.1-7.63 31-7.5 32.5 3.87 40.34 39.63 94.42 86.5 94.49 1.67 0 22.82-.27 39.7-13.16a51 51 0 0 0 9.8-9.83z" fill="#badc58"/><ellipse cx="118.43" cy="89.28" rx="11.53" ry="17.62" transform="rotate(-60 118.429 89.275)" fill="#30336b"/><path d="M165.75 101.09c3.19-5.52-1.06-13.93-9.49-18.8s-17.84-4.34-21 1.18 1.07 13.93 9.5 18.8 17.81 4.34 20.99-1.18z" fill="#30336b"/><path d="M182.3 140.14a20 20 0 0 1-9.94-3c-11.5-6.64-20.52-22.25-20.52-35.53 0-6.93 2.49-12.18 7-14.78s10.29-2.13 16.29 1.34c11.51 6.64 20.52 22.25 20.52 35.53 0 6.93-2.48 12.18-7 14.78a12.55 12.55 0 0 1-6.35 1.66zM165.21 90.7a7.16 7.16 0 0 0-3.62.91c-2.72 1.57-4.22 5.12-4.22 10 0 11.3 8 25.1 17.75 30.75 4.23 2.44 8 2.91 10.77 1.34s4.23-5.12 4.23-10c0-11.3-8-25.1-17.76-30.75a14.72 14.72 0 0 0-7.15-2.25zM137.05 124.39a20 20 0 0 1-9.94-3c-11.5-6.64-20.52-22.25-20.52-35.53 0-6.93 2.49-12.18 7-14.78s10.29-2.13 16.29 1.34c11.51 6.64 20.52 22.25 20.52 35.53 0 6.93-2.48 12.18-7 14.78a12.55 12.55 0 0 1-6.35 1.66zM120 75a7.16 7.16 0 0 0-3.62.91c-2.72 1.57-4.22 5.12-4.22 10 0 11.3 8 25.1 17.75 30.75 4.22 2.44 8 2.91 10.77 1.34s4.23-5.12 4.23-10c0-11.3-8-25.1-17.76-30.75A14.69 14.69 0 0 0 120 75z" fill="#fff"/><path d="M197.44 152.84c3.18-5.52-1.07-13.93-9.49-18.8s-17.84-4.34-21 1.18 1.07 13.93 9.49 18.8 17.81 4.34 21-1.18z" fill="#464c82"/><path d="M186.48 133.39c0-12-8.44-26.64-18.84-32.65-5.21-3-9.92-3.28-13.33-1.32l-9.55 5.26 26.66 46.17 9.54-5.26c3.41-1.97 5.52-6.19 5.52-12.2z" fill="#a32e2e"/><g clip-path="url(#c)" fill="#a32e2e"><path d="M186.48 133.39c0-12-8.44-26.64-18.84-32.65-5.21-3-9.92-3.28-13.33-1.32l-9.55 5.26 26.66 46.17 9.54-5.26c3.41-1.97 5.52-6.19 5.52-12.2z"/><path d="M187.17 143.05l-24.61 13.97v-46.26l24.61-13.97v46.26z"/></g><path d="M176.94 138.65c0-12-8.44-26.64-18.85-32.65s-18.85-1.14-18.85 10.88 8.44 26.64 18.85 32.65 18.85 1.14 18.85-10.88z" fill="#eb4d4b"/><path d="M174.86 149.06c3.13-5.42-1-13.69-9.33-18.47s-17.53-4.26-20.66 1.16 1 13.69 9.33 18.47 17.53 4.26 20.66-1.16z" fill="#30336b"/><ellipse cx="199.05" cy="180.03" rx="11.53" ry="17.62" transform="rotate(-60 199.055 180.027)" fill="#464c82"/><ellipse cx="198.49" cy="163.65" rx="11.33" ry="17.32" transform="rotate(-60 198.497 163.654)" fill="#30336b"/><path d="M152.9 106c2.13-5.89-3.43-13.3-12.42-16.55s-18-1.13-20.14 4.76 3.43 13.3 12.42 16.55 18.01 1.11 20.14-4.76z" fill="#464c82"/><path d="M199.48 184.76c0-12-8.44-26.63-18.84-32.64-5.21-3-9.92-3.29-13.33-1.32l-9.55 5.26 26.66 46.17L194 197c3.37-2 5.48-6.23 5.48-12.24z" fill="#a32e2e"/><g clip-path="url(#d)" fill="#a32e2e"><path d="M199.48 184.76c0-12-8.44-26.63-18.84-32.64-5.21-3-9.92-3.29-13.33-1.32l-9.55 5.26 26.66 46.17L194 197c3.37-2 5.48-6.23 5.48-12.24z"/><path d="M200.17 194.43l-24.61 13.97v-46.27l24.61-13.97v46.27z"/></g><ellipse cx="171.09" cy="179.14" rx="15.39" ry="26.65" transform="rotate(-30 171.098 179.146)" fill="#eb4d4b"/><path d="M122.86 96.64c0-12-8.44-26.64-18.85-32.65-5.2-3-9.91-3.28-13.33-1.32l-9.54 5.26 26.65 46.17 9.55-5.26c3.41-1.97 5.52-6.19 5.52-12.2z" fill="#a32e2e"/><g clip-path="url(#e)" fill="#a32e2e"><path d="M122.86 96.64c0-12-8.44-26.64-18.85-32.65-5.2-3-9.91-3.28-13.33-1.32l-9.54 5.26 26.65 46.17 9.55-5.26c3.41-1.97 5.52-6.19 5.52-12.2z"/><path d="M123.55 106.31l-24.61 13.96V74.01l24.61-13.97v46.27z"/></g><ellipse cx="94.47" cy="91.02" rx="15.39" ry="26.65" transform="rotate(-30 94.473 91.014)" fill="#eb4d4b"/><path d="M169.87 180.65c11.15-5.31 20-18.94 16.87-27.37-4.51-12.26-32.24-8-35.62-19.87-2.56-9 11.85-16.3 9-24s-17.88-3.14-40.88-11.25c-13.24-4.68-12.24-7.57-36-18.75C54.76 66 49.75 68.47 48 69.66c-8.94 6.06-4.24 27.14-3.75 29.25 6.65 28.51 33.08 44.47 64.13 62.62 28.34 16.58 45.94 26.53 61.49 19.12z" fill="#badc58"/><path d="M178 208.51l-150.81-87.1c0-39.14 42.37-63.6 76.26-44A149.19 149.19 0 0 1 178 206.57z" fill="#ffbe76"/></svg>