<svg id="Layer_1" data-name="Layer 1" xmlns="http://www.w3.org/2000/svg" xmlns:xlink="http://www.w3.org/1999/xlink" viewBox="0 0 32 32"><defs><style>.cls-1{fill:url(#linear-gradient);}</style><linearGradient id="linear-gradient" x1="16" y1="30.73" x2="16" y2="1.27" gradientUnits="userSpaceOnUse"><stop offset="0" stop-color="#093c61"/><stop offset="1" stop-color="#3870c4"/></linearGradient></defs><title>disputelab_favicon_32x32</title><path class="cls-1" d="M29.69,8.35a3.55,3.55,0,0,0-6,3.05h0a3.54,3.54,0,0,1-4.05,4.11h0a3.54,3.54,0,0,0-4.1,4h0a3.54,3.54,0,0,1-3.73,4.15,3.55,3.55,0,0,1-1.05-5.55h0a3.54,3.54,0,0,0,.61-2.93,3.55,3.55,0,0,1,4.27-3.84h0a3.55,3.55,0,0,0,3.07-5.88l0,0-.1-.11,0,0A3.54,3.54,0,0,0,13.75,5h0A3.54,3.54,0,0,1,8.15,3.58h0A3.55,3.55,0,1,0,7,7.61H7a3.55,3.55,0,0,1,5.53,1.21,3.54,3.54,0,0,1-4.1,3.68h0a3.55,3.55,0,0,0-3.21,5.9l.08.08,0,0,.07.06.19.17,0,0a3.56,3.56,0,0,0,1,.56h0a3.54,3.54,0,0,1,1.53,5.57h0L8,25l-.12.16-.09.15-.08.14-.09.17-.07.14-.07.17-.05.16,0,.16,0,.18,0,.15c0,.07,0,.13,0,.2s0,.09,0,.14,0,.14,0,.2,0,.1,0,.15,0,.13,0,.19,0,.12,0,.18,0,.11,0,.16,0,.14,0,.22l0,.09v0c0,.08,0,.16.08.23l0,.1.09.21.05.11.1.18.08.13.1.14.11.15.1.12.13.15,0,0,.09.08.13.12.15.12.11.08.19.12.1.06.21.11.1,0,.21.08.11,0,.2.06.14,0,.19,0,.16,0,.18,0h.51l.21,0,.13,0,.25-.05h.09l.26-.08.08,0,.24-.1.09,0,.2-.11.12-.07.15-.11.14-.1.12-.1.15-.13,0,0,.08-.09.12-.14.12-.15.09-.12.11-.18.07-.11.1-.19.05-.11.08-.19,0-.14.05-.18,0-.16,0-.16c0-.06,0-.13,0-.19s0-.1,0-.14,0-.13,0-.2,0-.1,0-.15,0-.13,0-.19,0-.11,0-.17v-.06h0v-.06a3.55,3.55,0,0,1,4.24-4.05h0a3.54,3.54,0,0,0,3.93-4h0a3.55,3.55,0,0,1,4.23-4.12h0a3.55,3.55,0,0,0,2.93-6Z"/></svg>