<svg xmlns="http://www.w3.org/2000/svg" xmlns:xlink="http://www.w3.org/1999/xlink" viewBox="0 0 255 255"><defs><linearGradient id="a" x1="7.93" y1="247.32" x2="247.58" y2="7.68" gradientUnits="userSpaceOnUse"><stop offset="0" stop-color="#dff9fb"/><stop offset="1" stop-color="#fff"/></linearGradient><clipPath id="b"><path d="M77.47,92.38l-50.28,29a7.7,7.7,0,0,0,3.89,6.74l150.85,87.1h0a7.72,7.72,0,0,0,7.79,0l26.94-15.56a23.34,23.34,0,0,0,11.67-20.21Z" style="fill:#e2a569"/></clipPath><clipPath id="c"><path d="M186.48,133.39c0-12-8.44-26.64-18.84-32.65-5.21-3-9.92-3.28-13.33-1.32h0l-9.55,5.26,26.66,46.17,9.54-5.26h0C184.37,143.62,186.48,139.4,186.48,133.39Z" style="fill:#a32e2e"/></clipPath><clipPath id="d"><path d="M199.48,184.76c0-12-8.44-26.63-18.84-32.64-5.21-3-9.92-3.29-13.33-1.32h0l-9.55,5.26,26.66,46.17L194,197h0C197.37,195,199.48,190.77,199.48,184.76Z" style="fill:#a32e2e"/></clipPath><clipPath id="e"><path d="M122.86,96.64c0-12-8.44-26.64-18.85-32.65-5.2-3-9.91-3.28-13.33-1.32h0l-9.54,5.26,26.65,46.17,9.55-5.26h0C120.75,106.87,122.86,102.65,122.86,96.64Z" style="fill:#a32e2e"/></clipPath></defs><title>lunch-logo</title><rect x="0.26" width="255" height="255" rx="26.13" ry="26.13" style="fill:url(#a)"/><path d="M77.47,92.38l-50.28,29a7.7,7.7,0,0,0,3.89,6.74l150.85,87.1h0a7.72,7.72,0,0,0,7.79,0l26.94-15.56a23.34,23.34,0,0,0,11.67-20.21Z" style="fill:#e2a569"/><g style="clip-path:url(#b)"><path d="M77.47,92.38l-50.28,29a7.7,7.7,0,0,0,3.89,6.74l150.85,87.1h0a7.72,7.72,0,0,0,7.79,0l26.94-15.56a23.34,23.34,0,0,0,11.67-20.21Z" style="fill:#e2a569"/><path d="M31.49,116.41l-9,4.25,5.25,11.75L185,217.53l3.5-1.25a9.27,9.27,0,0,1-7.87-2.38,8.91,8.91,0,0,1-2.5-6.06Z" style="fill:#e2a569"/></g><path d="M228.33,179.48,77.47,92.38h0c0-39.14,42.37-63.6,76.27-44h0a149.18,149.18,0,0,1,74.59,129.19Z" style="fill:#f0932b"/><path d="M210,151.41c9.75-12.95,15.68-34,7.5-43-7.32-8.07-19.58.52-29-7.5-14-12-.28-43.78-9.5-48-6.77-3.1-15.41,13.4-26.5,11-13.17-2.86-14.1-29-24-29.5-8-.38-10,16.52-22.5,19-10.81,2.13-17.49-8.88-24.5-6-10,4.1-7.63,31-7.5,32.5,3.87,40.34,39.63,94.42,86.5,94.49,1.67,0,22.82-.27,39.7-13.16A51,51,0,0,0,210,151.41Z" style="fill:#badc58"/><ellipse cx="118.43" cy="89.28" rx="11.53" ry="17.62" transform="translate(-18.1 147.2) rotate(-60)" style="fill:#30336b"/><path d="M165.75,101.09c3.19-5.52-1.06-13.93-9.49-18.8s-17.84-4.34-21,1.18,1.07,13.93,9.5,18.8S162.57,106.61,165.75,101.09Z" style="fill:#30336b"/><path d="M182.3,140.14a20,20,0,0,1-9.94-3c-11.5-6.64-20.52-22.25-20.52-35.53,0-6.93,2.49-12.18,7-14.78s10.29-2.13,16.29,1.34c11.51,6.64,20.52,22.25,20.52,35.53,0,6.93-2.48,12.18-7,14.78A12.55,12.55,0,0,1,182.3,140.14ZM165.21,90.7a7.16,7.16,0,0,0-3.62.91c-2.72,1.57-4.22,5.12-4.22,10,0,11.3,8,25.1,17.75,30.75,4.23,2.44,8,2.91,10.77,1.34s4.23-5.12,4.23-10c0-11.3-8-25.1-17.76-30.75A14.72,14.72,0,0,0,165.21,90.7Z" style="fill:#fff"/><path d="M137.05,124.39a20,20,0,0,1-9.94-3c-11.5-6.64-20.52-22.25-20.52-35.53,0-6.93,2.49-12.18,7-14.78s10.29-2.13,16.29,1.34c11.51,6.64,20.52,22.25,20.52,35.53,0,6.93-2.48,12.18-7,14.78A12.55,12.55,0,0,1,137.05,124.39ZM120,75a7.16,7.16,0,0,0-3.62.91c-2.72,1.57-4.22,5.12-4.22,10,0,11.3,8,25.1,17.75,30.75,4.22,2.44,8,2.91,10.77,1.34s4.23-5.12,4.23-10c0-11.3-8-25.1-17.76-30.75A14.69,14.69,0,0,0,120,75Z" style="fill:#fff"/><path d="M197.44,152.84c3.18-5.52-1.07-13.93-9.49-18.8s-17.84-4.34-21,1.18,1.07,13.93,9.49,18.8S194.25,158.36,197.44,152.84Z" style="fill:#464c82"/><path d="M186.48,133.39c0-12-8.44-26.64-18.84-32.65-5.21-3-9.92-3.28-13.33-1.32h0l-9.55,5.26,26.66,46.17,9.54-5.26h0C184.37,143.62,186.48,139.4,186.48,133.39Z" style="fill:#a32e2e"/><g style="clip-path:url(#c)"><path d="M186.48,133.39c0-12-8.44-26.64-18.84-32.65-5.21-3-9.92-3.28-13.33-1.32h0l-9.55,5.26,26.66,46.17,9.54-5.26h0C184.37,143.62,186.48,139.4,186.48,133.39Z" style="fill:#a32e2e"/><polygon points="187.17 143.05 162.56 157.02 162.56 110.76 187.17 96.79 187.17 143.05" style="fill:#a32e2e"/></g><path d="M176.94,138.65c0-12-8.44-26.64-18.85-32.65s-18.85-1.14-18.85,10.88,8.44,26.64,18.85,32.65S176.94,150.67,176.94,138.65Z" style="fill:#eb4d4b"/><path d="M174.86,149.06c3.13-5.42-1-13.69-9.33-18.47s-17.53-4.26-20.66,1.16,1,13.69,9.33,18.47S171.73,154.48,174.86,149.06Z" style="fill:#30336b"/><ellipse cx="199.05" cy="180.03" rx="11.53" ry="17.62" transform="translate(-56.38 262.4) rotate(-60)" style="fill:#464c82"/><ellipse cx="198.49" cy="163.65" rx="11.33" ry="17.32" transform="translate(-42.48 253.73) rotate(-60)" style="fill:#30336b"/><path d="M152.9,106c2.13-5.89-3.43-13.3-12.42-16.55s-18-1.13-20.14,4.76,3.43,13.3,12.42,16.55S150.77,111.87,152.9,106Z" style="fill:#464c82"/><path d="M199.48,184.76c0-12-8.44-26.63-18.84-32.64-5.21-3-9.92-3.29-13.33-1.32h0l-9.55,5.26,26.66,46.17L194,197h0C197.37,195,199.48,190.77,199.48,184.76Z" style="fill:#a32e2e"/><g style="clip-path:url(#d)"><path d="M199.48,184.76c0-12-8.44-26.63-18.84-32.64-5.21-3-9.92-3.29-13.33-1.32h0l-9.55,5.26,26.66,46.17L194,197h0C197.37,195,199.48,190.77,199.48,184.76Z" style="fill:#a32e2e"/><polygon points="200.17 194.43 175.56 208.4 175.56 162.13 200.17 148.16 200.17 194.43" style="fill:#a32e2e"/></g><ellipse cx="171.09" cy="179.14" rx="15.39" ry="26.65" transform="translate(-66.65 109.55) rotate(-30)" style="fill:#eb4d4b"/><path d="M122.86,96.64c0-12-8.44-26.64-18.85-32.65-5.2-3-9.91-3.28-13.33-1.32h0l-9.54,5.26,26.65,46.17,9.55-5.26h0C120.75,106.87,122.86,102.65,122.86,96.64Z" style="fill:#a32e2e"/><g style="clip-path:url(#e)"><path d="M122.86,96.64c0-12-8.44-26.64-18.85-32.65-5.2-3-9.91-3.28-13.33-1.32h0l-9.54,5.26,26.65,46.17,9.55-5.26h0C120.75,106.87,122.86,102.65,122.86,96.64Z" style="fill:#a32e2e"/><polygon points="123.55 106.31 98.94 120.27 98.94 74.01 123.55 60.04 123.55 106.31" style="fill:#a32e2e"/></g><ellipse cx="94.47" cy="91.02" rx="15.39" ry="26.65" transform="translate(-32.85 59.43) rotate(-30)" style="fill:#eb4d4b"/><path d="M169.87,180.65c11.15-5.31,20-18.94,16.87-27.37-4.51-12.26-32.24-8-35.62-19.87-2.56-9,11.85-16.3,9-24s-17.88-3.14-40.88-11.25C106,93.48,107,90.59,83.24,79.41,54.76,66,49.75,68.47,48,69.66c-8.94,6.06-4.24,27.14-3.75,29.25,6.65,28.51,33.08,44.47,64.13,62.62C136.72,178.11,154.32,188.06,169.87,180.65Z" style="fill:#badc58"/><path d="M178,208.51,27.19,121.41h0c0-39.14,42.37-63.6,76.26-44h0A149.19,149.19,0,0,1,178,206.57Z" style="fill:#ffbe76"/></svg>